<svg width="1440" height="1406" viewBox="0 0 1440 1406" fill="none" xmlns="http://www.w3.org/2000/svg">
<path fill-rule="evenodd" clip-rule="evenodd" d="M1360.72 1096.57L1326.48 1141.65L1312.26 1160.3L1301.31 1174.57L1292.04 1186.57L1283.84 1197.11L1276.38 1206.6L1269.49 1215.29L1263.03 1223.35L1256.93 1230.87L1251.12 1237.95L1245.56 1244.65L1240.21 1251.01L1235.03 1257.08L1230.02 1262.87L1225.14 1268.42L1220.39 1273.75L1215.75 1278.88L1211.2 1283.81L1206.74 1288.57L1202.36 1293.17L1198.05 1297.61L1193.81 1301.91L1189.62 1306.06L1185.49 1310.09L1181.4 1313.99L1177.36 1317.77L1173.36 1321.44L1169.4 1324.99L1165.47 1328.44L1161.58 1331.79L1157.71 1335.04L1153.87 1338.2L1150.05 1341.26L1146.25 1344.23L1142.47 1347.11L1138.71 1349.91L1134.97 1352.62L1131.24 1355.26L1127.52 1357.81L1123.81 1360.28L1120.12 1362.68L1116.43 1365.01L1112.75 1367.26L1109.08 1369.44L1105.42 1371.54L1101.76 1373.58L1098.1 1375.55L1094.45 1377.45L1090.79 1379.28L1087.14 1381.05L1083.49 1382.75L1079.84 1384.38L1076.19 1385.96L1072.54 1387.47L1068.88 1388.91L1065.23 1390.3L1061.57 1391.62L1057.9 1392.88L1054.23 1394.08L1050.56 1395.22L1046.87 1396.31L1043.19 1397.33L1039.49 1398.29L1035.79 1399.2L1032.08 1400.04L1028.36 1400.83L1024.63 1401.56L1020.9 1402.24L1017.15 1402.85L1013.39 1403.41L1009.63 1403.91L1005.85 1404.36L1002.06 1404.75L998.253 1405.08L994.437 1405.36L990.608 1405.58L986.765 1405.74L982.908 1405.85L979.036 1405.9L975.149 1405.9L971.247 1405.84L967.328 1405.72L963.393 1405.54L959.441 1405.32L955.471 1405.03L951.482 1404.69L947.475 1404.29L943.449 1403.83L939.403 1403.32L935.337 1402.75L931.249 1402.12L927.14 1401.44L923.009 1400.69L918.854 1399.89L914.677 1399.04L910.474 1398.12L906.247 1397.14L901.995 1396.1L897.715 1395.01L893.409 1393.85L889.074 1392.64L884.71 1391.36L880.316 1390.02L875.892 1388.62L871.436 1387.15L866.946 1385.62L862.423 1384.03L857.865 1382.38L853.27 1380.65L848.638 1378.86L843.967 1377.01L839.256 1375.08L834.503 1373.09L829.707 1371.02L824.866 1368.89L819.978 1366.68L815.042 1364.39L810.055 1362.03L805.015 1359.6L799.921 1357.08L794.769 1354.49L789.558 1351.81L784.284 1349.05L778.944 1346.2L773.535 1343.27L768.055 1340.24L762.498 1337.12L756.861 1333.9L751.139 1330.58L745.329 1327.15L739.423 1323.62L733.417 1319.98L727.304 1316.22L721.078 1312.33L714.729 1308.32L708.25 1304.17L701.63 1299.88L694.858 1295.44L687.922 1290.84L680.807 1286.06L673.497 1281.1L665.972 1275.95L658.21 1270.57L650.184 1264.97L641.862 1259.1L633.206 1252.94L624.167 1246.45L614.687 1239.6L604.687 1232.31L594.067 1224.52L582.686 1216.12L570.344 1206.95L556.735 1196.78L541.351 1185.23L523.21 1171.55L499.86 1153.89L456.05 1120.66L384.207 1066.11L359.555 1047.35L340.901 1033.1L325.279 1021.12L311.581 1010.57L299.247 1001.02L287.948 992.212L277.471 983.995L267.669 976.256L258.434 968.911L249.686 961.901L241.364 955.178L233.417 948.705L225.807 942.45L218.499 936.39L211.467 930.503L204.687 924.772L198.14 919.183L191.809 913.72L185.679 908.375L179.737 903.137L173.972 897.997L168.373 892.948L162.933 887.982L157.643 883.094L152.495 878.279L147.484 873.531L142.603 868.845L137.847 864.218L133.212 859.647L128.692 855.126L124.284 850.654L119.984 846.228L115.789 841.844L111.695 837.501L107.7 833.195L103.8 828.926L99.9935 824.69L96.2778 820.487L92.6508 816.313L89.1104 812.168L85.6548 808.051L82.2821 803.958L78.9906 799.891L75.7788 795.846L72.6453 791.822L69.5886 787.82L66.6076 783.836L63.7008 779.872L60.8671 775.925L58.1057 771.994L55.4153 768.078L52.7952 764.178L50.2441 760.291L47.7615 756.418L45.3466 752.556L42.9983 748.707L40.7163 744.868L38.4997 741.04L36.3477 737.221L34.2602 733.411L32.2362 729.609L30.2753 725.815L28.3771 722.028L26.5409 718.247L24.7665 714.473L23.0534 710.704L21.4012 706.94L19.8095 703.18L18.278 699.424L16.8065 695.672L15.3945 691.922L14.0419 688.175L12.7484 684.43L11.5137 680.686L10.3377 676.943L9.22013 673.201L8.16094 669.458L7.15992 665.715L6.2169 661.972L5.33189 658.227L4.50461 654.48L3.73515 650.73L3.0234 646.978L2.3694 643.223L1.77303 639.464L1.23433 635.7L0.753311 631.932L0.330043 628.159L-0.035409 624.38L-0.343012 620.594L-0.592652 616.802L-0.784186 613.002L-0.917464 609.195L-0.992404 605.379L-1.00872 601.553L-0.966296 597.719L-0.864875 593.873L-0.704205 590.017L-0.483988 586.149L-0.203955 582.269L0.136271 578.376L0.537002 574.469L0.998596 570.548L1.52151 566.611L2.10623 562.658L2.75315 558.688L3.46287 554.7L4.23589 550.693L5.07291 546.666L5.97445 542.618L6.94129 538.548L7.97408 534.455L9.07377 530.337L10.2411 526.193L11.477 522.022L12.7825 517.823L14.1586 513.593L15.6065 509.332L17.1274 505.037L18.7226 500.706L20.3936 496.338L22.1419 491.93L23.9691 487.48L25.8771 482.985L27.8679 478.443L29.9435 473.852L32.1062 469.206L34.3587 464.505L36.7037 459.742L39.1443 454.915L41.6837 450.019L44.3257 445.049L47.0745 439.999L49.9346 434.863L52.9111 429.635L56.0097 424.307L59.237 418.87L62.6003 413.314L66.108 407.629L69.7699 401.801L73.597 395.816L77.6026 389.656L81.8021 383.302L86.2141 376.727L90.8612 369.903L95.771 362.794L100.978 355.352L106.528 347.52L112.478 339.221L118.91 330.347L125.937 320.748L133.735 310.194L142.592 298.306L153.054 284.362L166.447 266.617L189.621 236.046L234.675 176.709L249.767 156.906L261.083 142.138L270.565 129.846L278.913 119.109L286.472 109.471L293.446 100.664L299.964 92.517L306.117 84.9122L311.969 77.7642L317.568 71.009L322.953 64.5971L328.152 58.4895L333.19 52.6545L338.087 47.066L342.859 41.7026L347.52 36.5459L352.082 31.5804L356.555 26.7927L360.948 22.1713L365.268 17.706L369.522 13.3879L373.717 9.20912L377.858 5.1627L381.949 1.24233L385.996 -2.5576L390.001 -6.24218L393.968 -9.816L397.902 -13.2832L401.803 -16.6476L405.676 -19.9126L409.523 -23.0815L413.346 -26.1571L417.147 -29.1421L420.929 -32.039L424.692 -34.8502L428.439 -37.5776L432.171 -40.2233L435.89 -42.789L439.597 -45.2766L443.294 -47.6875L446.982 -50.0232L450.661 -52.2852L454.333 -54.4746L458 -56.5928L461.661 -58.6407L465.318 -60.6195L468.973 -62.5302L472.625 -64.3736L476.275 -66.1507L479.925 -67.8623L483.575 -69.509L487.226 -71.0917L490.878 -72.6111L494.532 -74.0676L498.19 -75.462L501.85 -76.7948L505.515 -78.0665L509.184 -79.2775L512.859 -80.4284L516.539 -81.5196L520.225 -82.5515L523.919 -83.5243L527.619 -84.4386L531.328 -85.2945L535.045 -86.0924L538.771 -86.8326L542.506 -87.5153L546.251 -88.1406L550.006 -88.7089L553.772 -89.2203L557.549 -89.6749L561.338 -90.073L565.14 -90.4145L568.954 -90.6997L572.781 -90.9286L576.622 -91.1013L580.476 -91.2178L584.346 -91.2781L588.23 -91.2823L592.13 -91.2303L596.046 -91.1222L599.979 -90.9578L603.928 -90.7371L607.896 -90.4601L611.881 -90.1266L615.885 -89.7365L619.908 -89.2897L623.951 -88.786L628.014 -88.2252L632.098 -87.6072L636.204 -86.9316L640.331 -86.1983L644.482 -85.4071L648.656 -84.5575L652.854 -83.6493L657.077 -82.6821L661.326 -81.6556L665.601 -80.5694L669.903 -79.4231L674.234 -78.2161L678.593 -76.9481L682.981 -75.6185L687.401 -74.2267L691.852 -72.7722L696.336 -71.2542L700.854 -69.6722L705.406 -68.0255L709.995 -66.3131L714.621 -64.5344L719.286 -62.6885L723.99 -60.7744L728.737 -58.7911L733.526 -56.7375L738.36 -54.6126L743.24 -52.4151L748.168 -50.1438L753.147 -47.7971L758.178 -45.3737L763.264 -42.8719L768.406 -40.29L773.608 -37.6262L778.872 -34.8784L784.201 -32.0445L789.598 -29.1222L795.067 -26.1089L800.612 -23.002L806.236 -19.7983L811.943 -16.4947L817.739 -13.0876L823.629 -9.57301L829.619 -5.94676L835.714 -2.20405L841.922 1.66036L848.251 5.65233L854.709 9.77838L861.306 14.0458L868.053 18.4629L874.962 23.039L882.047 27.7849L889.325 32.7127L896.814 37.8368L904.537 43.1737L912.519 48.7432L920.791 54.5687L929.391 60.6787L938.365 67.108L947.77 73.9005L957.681 81.1123L968.195 88.8172L979.443 97.1155L991.615 106.15L1004.99 116.137L1020.05 127.43L1037.65 140.691L1059.85 157.484L1095.99 184.889L1174.76 244.686L1201.05 264.685L1220.37 279.43L1236.38 291.696L1250.34 302.442L1262.86 312.136L1274.31 321.047L1284.91 329.349L1294.81 337.158L1304.13 344.561L1312.95 351.621L1321.34 358.387L1329.34 364.898L1337 371.186L1344.36 377.275L1351.43 383.188L1358.25 388.943L1364.83 394.554L1371.2 400.036L1377.36 405.399L1383.33 410.654L1389.12 415.809L1394.75 420.872L1400.21 425.851L1405.52 430.75L1410.69 435.577L1415.73 440.336L1420.63 445.031L1425.4 449.667L1430.06 454.247L1434.6 458.775L1439.02 463.255L1443.34 467.688L1447.55 472.079L1451.66 476.428L1455.67 480.74L1459.58 485.015L1463.41 489.256L1467.14 493.464L1470.78 497.642L1474.33 501.792L1477.8 505.914L1481.19 510.01L1484.49 514.082L1487.71 518.13L1490.86 522.157L1493.93 526.162L1496.92 530.149L1499.84 534.116L1502.69 538.066L1505.46 542L1508.16 545.917L1510.79 549.82L1513.35 553.709L1515.85 557.585L1518.27 561.448L1520.63 565.299L1522.92 569.139L1525.15 572.97L1527.31 576.79L1529.41 580.601L1531.45 584.404L1533.42 588.2L1535.32 591.988L1537.17 595.769L1538.95 599.545L1540.68 603.315L1542.34 607.079L1543.94 610.84L1545.48 614.596L1546.96 618.349L1548.38 622.099L1549.75 625.847L1551.05 629.592L1552.29 633.336L1553.48 637.079L1554.61 640.822L1555.67 644.564L1556.68 648.307L1557.64 652.05L1558.53 655.795L1559.37 659.542L1560.15 663.291L1560.87 667.042L1561.53 670.797L1562.14 674.556L1562.68 678.318L1563.17 682.086L1563.61 685.858L1563.98 689.636L1564.3 693.421L1564.56 697.212L1564.76 701.01L1564.9 704.817L1564.98 708.631L1565.01 712.455L1564.98 716.288L1564.88 720.132L1564.73 723.986L1564.52 727.852L1564.25 731.73L1563.92 735.621L1563.53 739.526L1563.08 743.445L1562.57 747.379L1561.99 751.33L1561.35 755.297L1560.65 759.282L1559.89 763.286L1559.06 767.31L1558.17 771.354L1557.22 775.421L1556.19 779.51L1555.11 783.624L1553.95 787.763L1552.72 791.93L1551.43 796.125L1550.06 800.349L1548.63 804.606L1547.12 808.895L1545.54 813.22L1543.88 817.582L1542.14 821.984L1540.33 826.427L1538.43 830.914L1536.45 835.448L1534.39 840.032L1532.24 844.668L1530.01 849.361L1527.68 854.114L1525.25 858.93L1522.73 863.815L1520.1 868.773L1517.37 873.81L1514.53 878.931L1511.57 884.144L1508.49 889.456L1505.29 894.875L1501.94 900.411L1498.46 906.075L1494.82 911.879L1491.02 917.838L1487.05 923.968L1482.88 930.291L1478.5 936.828L1473.9 943.61L1469.03 950.671L1463.87 958.056L1458.38 965.821L1452.5 974.041L1446.15 982.814L1439.23 992.285L1431.57 1002.67L1422.91 1014.31L1412.76 1027.85L1400 1044.77L1380.04 1071.12L1360.72 1096.57Z" fill="#306358"/>
</svg>
