<svg width="48" height="433" viewBox="0 0 48 433" fill="none" xmlns="http://www.w3.org/2000/svg">
<line y1="-5" x2="58.2495" y2="-5" transform="matrix(-0.824042 0.566529 0.566529 0.824042 48 9)" stroke="#032660" stroke-width="10"/>
<line y1="-5" x2="58.2495" y2="-5" transform="matrix(-0.824042 0.566529 0.566529 0.824042 48 35)" stroke="#032660" stroke-width="10"/>
<line y1="-5" x2="58.2495" y2="-5" transform="matrix(-0.824042 0.566529 0.566529 0.824042 48 61)" stroke="#032660" stroke-width="10"/>
<line y1="-5" x2="58.2495" y2="-5" transform="matrix(-0.824042 0.566529 0.566529 0.824042 48 87)" stroke="#032660" stroke-width="10"/>
<line y1="-5" x2="58.2495" y2="-5" transform="matrix(-0.824042 0.566529 0.566529 0.824042 48 113)" stroke="#032660" stroke-width="10"/>
<line y1="-5" x2="58.2495" y2="-5" transform="matrix(-0.824042 0.566529 0.566529 0.824042 48 139)" stroke="#032660" stroke-width="10"/>
<line y1="-5" x2="58.2495" y2="-5" transform="matrix(-0.824042 0.566529 0.566529 0.824042 48 165)" stroke="#032660" stroke-width="10"/>
<line y1="-5" x2="58.2495" y2="-5" transform="matrix(-0.824042 0.566529 0.566529 0.824042 48 191)" stroke="#032660" stroke-width="10"/>
<line y1="-5" x2="58.2495" y2="-5" transform="matrix(-0.824042 0.566529 0.566529 0.824042 48 218)" stroke="#032660" stroke-width="10"/>
<line y1="-5" x2="58.2495" y2="-5" transform="matrix(-0.824042 0.566529 0.566529 0.824042 48 244)" stroke="#032660" stroke-width="10"/>
<line y1="-5" x2="58.2495" y2="-5" transform="matrix(-0.824042 0.566529 0.566529 0.824042 48 270)" stroke="#032660" stroke-width="10"/>
<line y1="-5" x2="58.2495" y2="-5" transform="matrix(-0.824042 0.566529 0.566529 0.824042 48 296)" stroke="#032660" stroke-width="10"/>
<line y1="-5" x2="58.2495" y2="-5" transform="matrix(-0.824042 0.566529 0.566529 0.824042 48 322)" stroke="#032660" stroke-width="10"/>
<line y1="-5" x2="58.2495" y2="-5" transform="matrix(-0.824042 0.566529 0.566529 0.824042 48 348)" stroke="#032660" stroke-width="10"/>
<line y1="-5" x2="58.2495" y2="-5" transform="matrix(-0.824042 0.566529 0.566529 0.824042 48 374)" stroke="#032660" stroke-width="10"/>
<line y1="-5" x2="58.2495" y2="-5" transform="matrix(-0.824042 0.566529 0.566529 0.824042 48 400)" stroke="#032660" stroke-width="10"/>
</svg>
